# Blender 3.6.2
# www.blender.org
mtllib sphereRounded.mtl
o sphereRounded
v 0.000000 0.127674 -0.650000
v 0.470325 -0.214058 -0.290719
v -0.179663 -0.425256 -0.290719
v -0.581401 0.127674 -0.290719
v -0.179663 0.680578 -0.290719
v 0.470325 0.469380 -0.290719
v 0.179637 -0.425256 0.290693
v -0.470350 -0.214058 0.290693
v -0.470350 0.469380 0.290693
v 0.179637 0.680578 0.290693
v 0.581375 0.127674 0.290693
v 0.000000 0.127674 0.650000
v 0.276439 -0.073208 -0.552966
v -0.105612 -0.197333 -0.552966
v 0.170853 -0.398215 -0.341764
v 0.276439 0.328530 -0.552966
v 0.552904 0.127674 -0.341764
v -0.341732 0.127674 -0.552966
v -0.447343 -0.197333 -0.341764
v -0.105612 0.452655 -0.552966
v -0.447343 0.452655 -0.341764
v 0.170853 0.653537 -0.341764
v 0.618171 0.328530 -0.000000
v 0.618171 -0.073208 0.000000
v 0.382051 -0.398215 0.000000
v 0.000000 -0.522339 0.000000
v -0.382077 -0.398215 0.000000
v -0.618196 -0.073208 0.000000
v -0.618196 0.328530 -0.000000
v -0.382077 0.653537 -0.000000
v 0.000000 0.777661 -0.000000
v 0.382051 0.653537 -0.000000
v 0.447318 -0.197333 0.341738
v -0.170879 -0.398215 0.341738
v -0.552930 0.127674 0.341738
v -0.170879 0.653537 0.341738
v 0.447318 0.452655 0.341738
v 0.341706 0.127674 0.552940
v 0.105586 -0.197333 0.552940
v -0.276465 -0.073208 0.552940
v -0.276465 0.328530 0.552940
v 0.105586 0.452655 0.552940
v 0.325875 0.584005 0.328715
v 0.534698 0.296586 0.328715
v 0.148255 0.584006 0.438491
v 0.054874 0.296586 0.625256
v 0.479798 0.127674 0.438491
v 0.177620 0.127674 0.625256
v 0.290688 0.469380 0.470359
v 0.235150 0.298527 0.581387
v 0.414812 0.298527 0.470359
v -0.333305 0.578618 0.328715
v 0.004545 0.688392 0.328715
v -0.388205 0.409680 0.438491
v -0.143710 0.232060 0.625256
v -0.235201 0.509725 0.470359
v -0.089831 0.404113 0.581387
v -0.034319 0.574992 0.470359
v -0.531889 -0.049971 0.328715
v -0.531889 0.305294 0.328715
v -0.388205 -0.154358 0.438491
v -0.143710 0.023262 0.625256
v -0.436057 0.022062 0.470359
v -0.290713 0.127674 0.581387
v -0.436057 0.233260 0.470359
v 0.004545 -0.433069 0.328715
v -0.333305 -0.323296 0.328715
v 0.148255 -0.328683 0.438491
v 0.054874 -0.041264 0.625256
v -0.034319 -0.319670 0.470359
v -0.089831 -0.148791 0.581387
v -0.235201 -0.254403 0.470359
v 0.325875 -0.328683 0.328715
v 0.534698 -0.041264 0.328715
v 0.414812 -0.043205 0.470359
v 0.235150 -0.043205 0.581387
v 0.290688 -0.214058 0.470359
v 0.443054 0.578618 -0.151118
v 0.291964 0.688392 0.151092
v 0.565799 0.409680 -0.151118
v 0.623508 0.232060 0.151092
v 0.525863 0.509725 -0.000000
v 0.560156 0.404113 0.179640
v 0.436032 0.574992 0.179640
v -0.291990 0.688392 -0.151118
v -0.443079 0.578618 0.151092
v -0.093406 0.752918 -0.151118
v 0.093381 0.752918 0.151092
v -0.200882 0.745845 -0.000000
v -0.089831 0.745845 0.179640
v -0.290713 0.680578 0.179640
v -0.623533 0.023262 -0.151118
v -0.565825 -0.154358 0.151092
v -0.623533 0.232060 -0.151118
v -0.565825 0.409680 0.151092
v -0.650013 0.127674 -0.000000
v -0.615720 0.233260 0.179641
v -0.615720 0.022062 0.179641
v -0.093406 -0.497596 -0.151118
v 0.093381 -0.497596 0.151092
v -0.291990 -0.433069 -0.151118
v -0.443079 -0.323296 0.151092
v -0.200882 -0.490523 0.000000
v -0.290713 -0.425256 0.179641
v -0.089831 -0.490523 0.179641
v 0.565799 -0.154358 -0.151118
v 0.623508 0.023262 0.151092
v 0.291964 -0.433069 0.151092
v 0.443054 -0.323296 -0.151118
v 0.525863 -0.254403 0.000000
v 0.436032 -0.319670 0.179641
v 0.560156 -0.148791 0.179641
v -0.004571 0.688392 -0.328741
v 0.333280 0.578618 -0.328741
v 0.089806 0.745845 -0.179666
v 0.200856 0.745845 -0.000000
v 0.290688 0.680578 -0.179666
v -0.534723 0.296586 -0.328741
v -0.325900 0.584005 -0.328741
v -0.560181 0.404113 -0.179666
v -0.525888 0.509725 -0.000000
v -0.436057 0.574992 -0.179666
v -0.325900 -0.328683 -0.328741
v -0.534723 -0.041264 -0.328741
v -0.436057 -0.319670 -0.179666
v -0.525888 -0.254403 0.000000
v -0.560181 -0.148791 -0.179666
v -0.004571 -0.433069 -0.328741
v 0.333280 -0.323296 -0.328741
v 0.290688 -0.425256 -0.179666
v 0.200856 -0.490523 0.000000
v 0.089806 -0.490523 -0.179666
v 0.531864 0.305294 -0.328741
v 0.531864 -0.049972 -0.328741
v 0.615694 0.233260 -0.179666
v 0.649987 0.127674 -0.000000
v 0.615694 0.022062 -0.179666
v -0.148280 0.584005 -0.438517
v -0.054900 0.296586 -0.625282
v 0.388179 0.409680 -0.438517
v 0.143684 0.232060 -0.625282
v 0.089806 0.404113 -0.581412
v 0.235175 0.509725 -0.470385
v 0.034293 0.574992 -0.470385
v -0.479824 0.127674 -0.438517
v -0.177645 0.127674 -0.625282
v -0.235175 0.298527 -0.581412
v -0.290713 0.469380 -0.470385
v -0.414838 0.298527 -0.470385
v -0.148280 -0.328683 -0.438517
v -0.054900 -0.041264 -0.625282
v -0.235175 -0.043205 -0.581412
v -0.414838 -0.043205 -0.470385
v -0.290713 -0.214058 -0.470385
v 0.143684 0.023262 -0.625282
v 0.388179 -0.154358 -0.438517
v 0.290688 0.127674 -0.581412
v 0.436032 0.233260 -0.470385
v 0.436032 0.022062 -0.470385
v 0.089806 -0.148791 -0.581412
v 0.034293 -0.319670 -0.470385
v 0.235175 -0.254403 -0.470385
vn 0.1410 -0.4342 -0.8897
vn 0.3524 -0.5878 -0.7283
vn 0.0603 -0.6827 -0.7282
vn 0.4564 -0.0000 -0.8898
vn 0.6679 0.1536 -0.7283
vn 0.6679 -0.1537 -0.7282
vn -0.3693 -0.2683 -0.8897
vn -0.4501 -0.5168 -0.7282
vn -0.6306 -0.2683 -0.7282
vn -0.3693 0.2682 -0.8898
vn -0.6307 0.2682 -0.7282
vn -0.4501 0.5168 -0.7283
vn 0.1410 0.4341 -0.8898
vn 0.0603 0.6826 -0.7283
vn 0.3524 0.5877 -0.7283
vn 0.9500 0.1536 -0.2718
vn 0.9999 -0.0000 -0.0104
vn 0.9500 -0.1537 -0.2718
vn 0.4396 -0.8561 -0.2718
vn 0.3090 -0.9510 -0.0104
vn 0.1474 -0.9510 -0.2718
vn -0.6784 -0.6826 -0.2718
vn -0.8090 -0.5878 -0.0104
vn -0.8588 -0.4342 -0.2718
vn -0.8589 0.4341 -0.2718
vn -0.8090 0.5877 -0.0104
vn -0.6784 0.6826 -0.2718
vn 0.1474 0.9510 -0.2718
vn 0.3090 0.9510 -0.0104
vn 0.4396 0.8561 -0.2718
vn 0.8089 -0.5878 0.0103
vn 0.8588 -0.4342 0.2717
vn 0.6783 -0.6827 0.2717
vn -0.3091 -0.9510 0.0103
vn -0.1475 -0.9510 0.2717
vn -0.4397 -0.8561 0.2717
vn -0.9999 -0.0000 0.0103
vn -0.9500 -0.1537 0.2717
vn -0.9500 0.1536 0.2717
vn -0.3091 0.9510 0.0103
vn -0.4397 0.8560 0.2717
vn -0.1475 0.9510 0.2717
vn 0.8090 0.5878 0.0103
vn 0.6784 0.6826 0.2717
vn 0.8589 0.4342 0.2717
vn 0.6306 -0.2683 0.7282
vn 0.3692 -0.2683 0.8898
vn 0.4500 -0.5169 0.7282
vn -0.0604 -0.6827 0.7282
vn -0.1411 -0.4342 0.8897
vn -0.3525 -0.5878 0.7282
vn -0.6680 -0.1537 0.7281
vn -0.4565 -0.0000 0.8897
vn -0.6680 0.1536 0.7282
vn -0.3525 0.5877 0.7282
vn -0.1411 0.4341 0.8897
vn -0.0604 0.6827 0.7282
vn 0.4500 0.5168 0.7282
vn 0.3692 0.2682 0.8898
vn 0.6307 0.2682 0.7282
vn 0.2285 0.7034 0.6731
vn 0.4998 0.7033 0.5054
vn 0.2712 -0.0000 0.9625
vn 0.0838 0.2580 0.9625
vn 0.8234 0.2580 0.5055
vn 0.6306 0.2682 0.7282
vn 0.7395 -0.0000 0.6731
vn -0.5984 0.4346 0.6731
vn -0.5145 0.6927 0.5054
vn -0.2195 0.1594 0.9625
vn 0.0090 0.8628 0.5054
vn -0.0604 0.6826 0.7282
vn 0.2285 0.7033 0.6731
vn -0.5984 -0.4347 0.6731
vn -0.8178 -0.2753 0.5054
vn -0.2195 -0.1595 0.9625
vn -0.8178 0.2752 0.5054
vn 0.2285 -0.7034 0.6731
vn 0.0090 -0.8629 0.5054
vn 0.0838 -0.2581 0.9625
vn -0.5145 -0.6928 0.5054
vn -0.5984 -0.4347 0.6730
vn 0.8234 -0.2581 0.5054
vn 0.4998 -0.7034 0.5054
vn 0.8696 0.4346 -0.2342
vn 0.6821 0.6927 -0.2342
vn 0.9591 0.1594 0.2341
vn 0.4480 0.8628 0.2341
vn 0.6783 0.6827 0.2717
vn -0.1447 0.9614 -0.2342
vn -0.4481 0.8628 -0.2342
vn 0.1446 0.9614 0.2341
vn -0.6822 0.6927 0.2341
vn -0.9590 0.1594 -0.2342
vn -0.9590 -0.1595 -0.2342
vn -0.8697 0.4346 0.2341
vn -0.9501 0.1536 0.2717
vn -0.8696 -0.4347 0.2341
vn -0.4480 -0.8628 -0.2342
vn -0.1447 -0.9614 -0.2342
vn -0.6822 -0.6927 0.2341
vn 0.1446 -0.9614 0.2341
vn 0.6821 -0.6928 -0.2342
vn 0.8696 -0.4347 -0.2342
vn 0.4480 -0.8629 0.2341
vn 0.9590 -0.1595 0.2341
vn 0.8589 -0.4342 0.2717
vn -0.0091 0.8628 -0.5055
vn 0.5144 0.6927 -0.5055
vn -0.8234 0.2580 -0.5055
vn -0.4999 0.7033 -0.5055
vn -0.4481 -0.8628 -0.2342
vn -0.6783 -0.6826 -0.2718
vn -0.4999 -0.7033 -0.5054
vn -0.8696 -0.4346 0.2341
vn -0.8234 -0.2581 -0.5055
vn -0.8589 -0.4342 -0.2718
vn 0.5144 -0.6928 -0.5055
vn -0.0091 -0.8628 -0.5054
vn 0.8177 0.2752 -0.5055
vn 0.8177 -0.2753 -0.5055
vn 0.2194 0.1594 -0.9625
vn -0.0839 0.2580 -0.9625
vn 0.5983 0.4346 -0.6732
vn -0.2286 0.7033 -0.6732
vn -0.2713 -0.0000 -0.9625
vn -0.7395 -0.0000 -0.6731
vn -0.0839 -0.2581 -0.9625
vn -0.3693 -0.2683 -0.8898
vn -0.8234 -0.2581 -0.5054
vn -0.2286 -0.7033 -0.6731
vn -0.4501 -0.5169 -0.7282
vn 0.2194 -0.1595 -0.9625
vn 0.5983 -0.4347 -0.6732
vn 0.4253 -0.3091 -0.8507
vn 0.5983 -0.4347 -0.6731
vn 0.2628 -0.8090 -0.5258
vn 0.7235 -0.5258 -0.4473
vn 0.2628 -0.8090 -0.5257
vn 0.0603 -0.6827 -0.7283
vn -0.1625 -0.5000 -0.8507
vn -0.2764 -0.8506 -0.4473
vn 0.4253 -0.3091 -0.8506
vn -0.0000 -0.0000 -1.0000
vn 0.8506 -0.0000 -0.5258
vn 0.6679 -0.1537 -0.7283
vn 0.6679 0.1536 -0.7282
vn 0.8178 0.2752 -0.5055
vn 0.4253 0.3090 -0.8507
vn 0.7236 0.5257 -0.4473
vn -0.1625 -0.5000 -0.8506
vn -0.6881 -0.5001 -0.5257
vn -0.6881 -0.5000 -0.5258
vn -0.6307 -0.2683 -0.7282
vn -0.5258 -0.0000 -0.8506
vn -0.8944 -0.0000 -0.4473
vn -0.8233 -0.2581 -0.5055
vn -0.5257 -0.0000 -0.8506
vn -0.6307 0.2682 -0.7283
vn -0.6882 0.5000 -0.5258
vn -0.8944 -0.0000 -0.4472
vn -0.1625 0.4999 -0.8507
vn -0.4501 0.5168 -0.7282
vn -0.2764 0.8506 -0.4473
vn 0.2628 0.8090 -0.5258
vn 0.9510 -0.3091 -0.0000
vn 0.9511 0.3090 -0.0000
vn 0.9590 0.1594 0.2341
vn 0.8944 -0.0000 0.4472
vn -0.0000 -1.0000 -0.0000
vn 0.5877 -0.8091 -0.0000
vn 0.2763 -0.8507 0.4472
vn 0.7236 -0.5258 -0.4473
vn -0.9510 -0.3091 -0.0000
vn -0.5878 -0.8090 -0.0000
vn -0.6821 -0.6928 0.2341
vn -0.7236 -0.5258 0.4472
vn -0.6821 -0.6927 0.2341
vn -0.6783 -0.6827 -0.2718
vn -0.4998 -0.7033 -0.5055
vn -0.4998 -0.7033 -0.5054
vn -0.5878 0.8090 -0.0000
vn -0.9511 0.3090 -0.0000
vn -0.7237 0.5257 0.4472
vn 0.5877 0.8091 -0.0000
vn -0.0000 1.0000 -0.0000
vn 0.2763 0.8507 0.4472
vn 0.6881 -0.5001 0.5257
vn 0.8233 -0.2581 0.5054
vn 0.4480 -0.8628 0.2341
vn 0.7236 -0.5258 -0.4472
vn -0.2629 -0.8091 0.5257
vn -0.2629 -0.8091 0.5256
vn -0.5145 -0.6928 0.5053
vn -0.7236 -0.5258 0.4471
vn -0.8507 -0.0000 0.5257
vn -0.2629 0.8090 0.5257
vn 0.6882 0.5000 0.5257
vn 0.4998 0.7034 0.5054
vn 0.8234 0.2580 0.5054
vn 0.8589 0.4341 0.2717
vn 0.5877 0.8090 -0.0000
vn 0.1624 -0.5000 0.8506
vn 0.5257 -0.0000 0.8506
vn -0.0000 -0.0000 1.0000
vn -0.4254 -0.3091 0.8506
vn -0.6680 0.1536 0.7281
vn -0.4254 0.3090 0.8506
vn -0.6680 -0.1537 0.7282
vn 0.1624 0.5000 0.8507
vn 0.5258 -0.0000 0.8506
vn 0.1624 0.4999 0.8507
vn 0.4500 0.5169 0.7282
vn 0.4999 0.7034 0.5054
vn 0.4500 0.5168 0.7283
vn 0.5257 -0.0000 0.8507
vn 0.4501 0.5168 0.7282
vn -0.0604 0.6826 0.7283
vn 0.6882 0.5001 0.5257
vn 0.8090 0.5877 0.0103
vn -0.4397 0.8561 0.2717
vn -0.5877 -0.8090 -0.0000
vn 0.5878 0.8090 -0.0000
vn 0.3524 -0.5878 -0.7282
vt 0.000000 0.000000
s 0
f 160/1/1 162/1/2 161/1/3
f 157/1/4 158/1/5 159/1/6
f 152/1/7 154/1/8 153/1/9
f 147/1/10 149/1/11 148/1/12
f 142/1/13 144/1/14 143/1/15
f 135/1/16 136/1/17 137/1/18
f 130/1/19 131/1/20 132/1/21
f 125/1/22 126/1/23 127/1/24
f 120/1/25 121/1/26 122/1/27
f 115/1/28 116/1/29 117/1/30
f 110/1/31 112/1/32 111/1/33
f 103/1/34 105/1/35 104/1/36
f 96/1/37 98/1/38 97/1/39
f 89/1/40 91/1/41 90/1/42
f 82/1/43 84/1/44 83/1/45
f 75/1/46 76/1/47 77/1/48
f 70/1/49 71/1/50 72/1/51
f 63/1/52 64/1/53 65/1/54
f 56/1/55 57/1/56 58/1/57
f 49/1/58 50/1/59 51/1/60
f 45/1/61 49/1/58 43/1/62
f 48/1/63 50/1/59 46/1/64
f 44/1/65 51/1/66 47/1/67
f 54/1/68 56/1/55 52/1/69
f 46/1/64 57/1/56 55/1/70
f 53/1/71 58/1/72 45/1/73
f 61/1/74 63/1/52 59/1/75
f 55/1/70 64/1/53 62/1/76
f 60/1/77 65/1/54 54/1/68
f 68/1/78 70/1/49 66/1/79
f 62/1/76 71/1/50 69/1/80
f 67/1/81 72/1/51 61/1/82
f 47/1/67 75/1/46 74/1/83
f 69/1/80 76/1/47 48/1/63
f 73/1/84 77/1/48 68/1/78
f 80/1/85 78/1/86 82/1/43
f 44/1/65 81/1/87 83/1/45
f 79/1/88 43/1/62 84/1/89
f 87/1/90 85/1/91 89/1/40
f 53/1/71 88/1/92 90/1/42
f 86/1/93 52/1/69 91/1/41
f 94/1/94 92/1/95 96/1/37
f 60/1/77 95/1/96 97/1/97
f 93/1/98 59/1/75 98/1/38
f 101/1/99 99/1/100 103/1/34
f 67/1/81 102/1/101 104/1/36
f 100/1/102 66/1/79 105/1/35
f 109/1/103 106/1/104 110/1/31
f 73/1/84 108/1/105 111/1/33
f 107/1/106 74/1/83 112/1/107
f 87/1/90 115/1/28 113/1/108
f 79/1/88 116/1/29 88/1/92
f 114/1/109 117/1/30 78/1/86
f 94/1/94 120/1/25 118/1/110
f 86/1/93 121/1/26 95/1/96
f 119/1/111 122/1/27 85/1/91
f 101/1/112 125/1/113 123/1/114
f 93/1/115 126/1/23 102/1/101
f 124/1/116 127/1/117 92/1/95
f 109/1/103 130/1/19 129/1/118
f 100/1/102 131/1/20 108/1/105
f 128/1/119 132/1/21 99/1/100
f 80/1/85 135/1/16 133/1/120
f 107/1/106 136/1/17 81/1/87
f 134/1/121 137/1/18 106/1/104
f 141/1/122 139/1/123 142/1/13
f 114/1/109 140/1/124 143/1/15
f 138/1/125 113/1/108 144/1/14
f 139/1/123 146/1/126 147/1/10
f 119/1/111 138/1/125 148/1/12
f 145/1/127 118/1/110 149/1/11
f 146/1/126 151/1/128 152/1/129
f 124/1/130 145/1/127 153/1/9
f 150/1/131 123/1/114 154/1/132
f 141/1/122 157/1/4 155/1/133
f 133/1/120 158/1/5 140/1/124
f 156/1/134 159/1/6 134/1/121
f 151/1/128 155/1/133 160/1/1
f 128/1/119 150/1/131 161/1/3
f 156/1/134 129/1/118 162/1/2
f 13/1/135 156/1/136 162/1/2
f 15/1/137 162/1/2 129/1/118
f 2/1/138 129/1/118 156/1/134
f 15/1/139 128/1/119 161/1/140
f 14/1/141 161/1/3 150/1/131
f 3/1/142 150/1/131 128/1/119
f 14/1/141 151/1/128 160/1/1
f 13/1/143 160/1/1 155/1/133
f 1/1/144 155/1/133 151/1/128
f 13/1/143 159/1/6 156/1/136
f 17/1/145 134/1/121 159/1/146
f 2/1/138 156/1/136 134/1/121
f 17/1/145 158/1/147 133/1/148
f 16/1/149 140/1/124 158/1/5
f 6/1/150 133/1/120 140/1/124
f 16/1/149 157/1/4 141/1/122
f 13/1/143 155/1/133 157/1/4
f 1/1/144 141/1/122 155/1/133
f 14/1/151 150/1/131 154/1/8
f 19/1/152 154/1/132 123/1/114
f 3/1/142 123/1/114 150/1/131
f 19/1/153 124/1/116 153/1/154
f 18/1/155 153/1/9 145/1/127
f 4/1/156 145/1/127 124/1/157
f 18/1/158 146/1/126 152/1/7
f 14/1/141 152/1/7 151/1/128
f 1/1/144 151/1/128 146/1/126
f 18/1/155 145/1/127 149/1/159
f 21/1/160 149/1/11 118/1/110
f 4/1/161 118/1/110 145/1/127
f 21/1/160 119/1/111 148/1/12
f 20/1/162 148/1/163 138/1/125
f 5/1/164 138/1/125 119/1/111
f 20/1/162 139/1/123 147/1/10
f 18/1/155 147/1/10 146/1/126
f 1/1/144 146/1/126 139/1/123
f 20/1/162 138/1/125 144/1/14
f 22/1/165 144/1/14 113/1/108
f 5/1/164 113/1/108 138/1/125
f 22/1/165 114/1/109 143/1/15
f 16/1/149 143/1/15 140/1/124
f 6/1/150 140/1/124 114/1/109
f 16/1/149 141/1/122 142/1/13
f 20/1/162 142/1/13 139/1/123
f 1/1/144 139/1/123 141/1/122
f 17/1/145 137/1/18 134/1/121
f 24/1/166 106/1/104 137/1/18
f 2/1/138 134/1/121 106/1/104
f 24/1/166 136/1/17 107/1/106
f 23/1/167 81/1/168 136/1/17
f 11/1/169 107/1/106 81/1/87
f 23/1/167 135/1/16 80/1/85
f 17/1/145 133/1/148 135/1/16
f 6/1/150 80/1/85 133/1/120
f 15/1/137 132/1/21 128/1/119
f 26/1/170 99/1/100 132/1/21
f 3/1/142 128/1/119 99/1/100
f 26/1/170 131/1/20 100/1/102
f 25/1/171 108/1/105 131/1/20
f 7/1/172 100/1/102 108/1/105
f 25/1/171 130/1/19 109/1/103
f 15/1/139 129/1/118 130/1/19
f 2/1/173 109/1/103 129/1/118
f 19/1/152 127/1/117 124/1/130
f 28/1/174 92/1/95 127/1/24
f 4/1/161 124/1/157 92/1/95
f 28/1/174 126/1/23 93/1/98
f 27/1/175 102/1/176 126/1/23
f 8/1/177 93/1/98 102/1/178
f 27/1/175 125/1/179 101/1/99
f 19/1/153 123/1/180 125/1/113
f 3/1/142 101/1/112 123/1/181
f 21/1/160 122/1/27 119/1/111
f 30/1/182 85/1/91 122/1/27
f 5/1/164 119/1/111 85/1/91
f 30/1/182 121/1/26 86/1/93
f 29/1/183 95/1/96 121/1/26
f 9/1/184 86/1/93 95/1/96
f 29/1/183 120/1/25 94/1/94
f 21/1/160 118/1/110 120/1/25
f 4/1/161 94/1/94 118/1/110
f 22/1/165 117/1/30 114/1/109
f 32/1/185 78/1/86 117/1/30
f 6/1/150 114/1/109 78/1/86
f 32/1/185 116/1/29 79/1/88
f 31/1/186 88/1/92 116/1/29
f 10/1/187 79/1/88 88/1/92
f 31/1/186 115/1/28 87/1/90
f 22/1/165 113/1/108 115/1/28
f 5/1/164 87/1/90 113/1/108
f 24/1/166 107/1/106 112/1/107
f 33/1/188 112/1/32 74/1/83
f 11/1/169 74/1/189 107/1/106
f 33/1/188 73/1/84 111/1/33
f 25/1/171 111/1/33 108/1/190
f 7/1/172 108/1/105 73/1/84
f 25/1/171 109/1/103 110/1/31
f 24/1/166 110/1/31 106/1/104
f 2/1/191 106/1/104 109/1/103
f 26/1/170 100/1/102 105/1/35
f 34/1/192 105/1/35 66/1/79
f 7/1/172 66/1/79 100/1/102
f 34/1/193 67/1/194 104/1/36
f 27/1/175 104/1/36 102/1/101
f 8/1/195 102/1/178 67/1/81
f 27/1/175 101/1/99 103/1/34
f 26/1/170 103/1/34 99/1/100
f 3/1/142 99/1/100 101/1/99
f 28/1/174 93/1/98 98/1/38
f 35/1/196 98/1/38 59/1/75
f 8/1/195 59/1/75 93/1/98
f 35/1/196 60/1/77 97/1/97
f 29/1/183 97/1/97 95/1/96
f 9/1/184 95/1/96 60/1/77
f 29/1/183 94/1/94 96/1/37
f 28/1/174 96/1/37 92/1/95
f 4/1/161 92/1/95 94/1/94
f 30/1/182 86/1/93 91/1/41
f 36/1/197 91/1/41 52/1/69
f 9/1/184 52/1/69 86/1/93
f 36/1/197 53/1/71 90/1/42
f 31/1/186 90/1/42 88/1/92
f 10/1/187 88/1/92 53/1/71
f 31/1/186 87/1/90 89/1/40
f 30/1/182 89/1/40 85/1/91
f 5/1/164 85/1/91 87/1/90
f 32/1/185 79/1/88 84/1/89
f 37/1/198 84/1/44 43/1/62
f 10/1/187 43/1/199 79/1/88
f 37/1/198 44/1/200 83/1/45
f 23/1/167 83/1/201 81/1/87
f 11/1/169 81/1/87 44/1/200
f 23/1/167 80/1/85 82/1/43
f 32/1/202 82/1/43 78/1/86
f 6/1/150 78/1/86 80/1/85
f 33/1/188 77/1/48 73/1/84
f 39/1/203 68/1/78 77/1/48
f 7/1/172 73/1/84 68/1/78
f 39/1/203 76/1/47 69/1/80
f 38/1/204 48/1/63 76/1/47
f 12/1/205 69/1/80 48/1/63
f 38/1/204 75/1/46 47/1/67
f 33/1/188 74/1/83 75/1/46
f 11/1/169 47/1/67 74/1/83
f 34/1/192 72/1/51 67/1/81
f 40/1/206 61/1/82 72/1/51
f 8/1/195 67/1/81 61/1/82
f 40/1/206 71/1/50 62/1/76
f 39/1/203 69/1/80 71/1/50
f 12/1/205 62/1/76 69/1/80
f 39/1/203 70/1/49 68/1/78
f 34/1/192 66/1/79 70/1/49
f 7/1/172 68/1/78 66/1/79
f 35/1/196 65/1/207 60/1/77
f 41/1/208 54/1/68 65/1/54
f 9/1/184 60/1/77 54/1/68
f 41/1/208 64/1/53 55/1/70
f 40/1/206 62/1/76 64/1/53
f 12/1/205 55/1/70 62/1/76
f 40/1/206 63/1/209 61/1/74
f 35/1/196 59/1/75 63/1/209
f 8/1/195 61/1/74 59/1/75
f 36/1/197 58/1/57 53/1/71
f 42/1/210 45/1/61 58/1/72
f 10/1/187 53/1/71 45/1/73
f 42/1/210 57/1/56 46/1/64
f 41/1/208 55/1/70 57/1/56
f 12/1/205 46/1/64 55/1/70
f 41/1/208 56/1/55 54/1/68
f 36/1/197 52/1/69 56/1/55
f 9/1/184 54/1/68 52/1/69
f 37/1/198 51/1/66 44/1/200
f 38/1/211 47/1/67 51/1/60
f 11/1/169 44/1/200 47/1/67
f 38/1/204 50/1/59 48/1/63
f 42/1/212 46/1/64 50/1/59
f 12/1/205 48/1/63 46/1/64
f 42/1/210 49/1/213 45/1/73
f 37/1/198 43/1/62 49/1/58
f 10/1/187 45/1/61 43/1/214
f 42/1/210 50/1/59 49/1/215
f 38/1/216 51/1/60 50/1/59
f 37/1/198 49/1/217 51/1/66
f 41/1/208 57/1/56 56/1/55
f 42/1/210 58/1/218 57/1/56
f 36/1/197 56/1/55 58/1/57
f 40/1/206 64/1/53 63/1/209
f 41/1/208 65/1/54 64/1/53
f 35/1/196 63/1/209 65/1/54
f 39/1/203 71/1/50 70/1/49
f 40/1/206 72/1/51 71/1/50
f 34/1/192 70/1/49 72/1/51
f 38/1/216 76/1/47 75/1/46
f 39/1/203 77/1/48 76/1/47
f 33/1/188 75/1/46 77/1/48
f 23/1/167 82/1/43 83/1/45
f 37/1/219 83/1/45 84/1/89
f 32/1/202 84/1/89 82/1/220
f 31/1/186 89/1/40 90/1/42
f 36/1/197 90/1/42 91/1/221
f 30/1/182 91/1/41 89/1/40
f 29/1/183 96/1/37 97/1/97
f 35/1/196 97/1/97 98/1/38
f 28/1/174 98/1/38 96/1/37
f 27/1/222 103/1/34 104/1/36
f 34/1/192 104/1/36 105/1/35
f 26/1/170 105/1/35 103/1/34
f 25/1/171 110/1/31 111/1/33
f 33/1/188 111/1/33 112/1/32
f 24/1/166 112/1/32 110/1/31
f 31/1/186 116/1/29 115/1/28
f 32/1/223 117/1/30 116/1/29
f 22/1/165 115/1/28 117/1/30
f 29/1/183 121/1/26 120/1/25
f 30/1/182 122/1/27 121/1/26
f 21/1/160 120/1/25 122/1/27
f 27/1/222 126/1/23 125/1/113
f 28/1/174 127/1/117 126/1/23
f 19/1/153 125/1/113 127/1/117
f 25/1/171 131/1/20 130/1/19
f 26/1/170 132/1/21 131/1/20
f 15/1/137 130/1/19 132/1/21
f 23/1/167 136/1/17 135/1/16
f 24/1/166 137/1/18 136/1/17
f 17/1/145 135/1/16 137/1/18
f 16/1/149 142/1/13 143/1/15
f 22/1/165 143/1/15 144/1/14
f 20/1/162 144/1/14 142/1/13
f 20/1/162 147/1/10 148/1/12
f 21/1/160 148/1/12 149/1/11
f 18/1/155 149/1/11 147/1/10
f 18/1/155 152/1/7 153/1/154
f 19/1/153 153/1/9 154/1/8
f 14/1/151 154/1/132 152/1/7
f 16/1/149 158/1/5 157/1/4
f 17/1/145 159/1/6 158/1/5
f 13/1/143 157/1/4 159/1/146
f 14/1/151 160/1/1 161/1/3
f 15/1/137 161/1/3 162/1/224
f 13/1/143 162/1/2 160/1/1
