# Blender 3.6.2
# www.blender.org
mtllib untitled.mtl
o sphere2
v -0.163087 -1.907128 -0.955851
v -0.436463 3.000720 -0.706018
v 0.121350 -1.911391 1.125985
v 0.611664 3.032790 0.568840
v 2.052214 0.271764 1.683271
v 0.715577 0.042849 2.540582
v -0.191980 -0.881058 -2.221040
v 1.349954 -1.367351 -1.274389
v 1.113351 0.743217 -2.429137
v -1.346003 0.680779 -2.243075
v -1.614178 -0.438257 -1.845319
v -0.191974 1.880972 -2.221030
v -2.042966 1.537273 -1.393956
v 1.349954 2.367250 -1.274390
v 2.576229 0.971263 -0.516729
v 2.382082 -0.495101 0.333243
v -1.522767 -1.652566 -0.329230
v -2.418972 -0.504520 -0.128254
v -2.512087 1.095105 0.333693
v -1.829839 2.351013 -0.038966
v -1.333535 -1.416147 1.172787
v -1.333535 2.416047 1.172787
v 1.895462 2.112013 0.835895
v -0.767322 -0.495174 2.279647
v -0.772975 1.498655 2.334736
v 0.800254 1.817196 2.097677
v -1.960221 1.097480 1.605596
v -2.110875 -0.190252 1.404458
v 1.292611 -1.711037 0.584663
v 2.135870 -0.310196 -1.320032
vn 0.4015 -0.8679 -0.2924
vn 0.3591 -0.9333 0.0037
vn 0.1322 -0.9675 -0.2156
vn 0.0870 0.9549 -0.2840
vn 0.2827 0.9573 -0.0601
vn 0.3751 0.8605 -0.3448
vn -0.3894 -0.9207 0.0261
vn -0.1448 -0.9592 0.2429
vn -0.4115 -0.8563 0.3121
vn -0.2660 0.9640 0.0020
vn -0.3704 0.8836 0.2866
vn -0.0765 0.9706 0.2282
vn -0.5587 -0.2321 0.7962
vn -0.3677 0.0170 0.9298
vn -0.6135 0.0440 0.7884
vn -0.6802 0.3557 0.6409
vn -0.4370 0.4477 0.7801
vn -0.5424 0.6260 0.5603
vn -0.0427 0.8740 0.4841
vn -0.2089 0.6887 0.6943
vn 0.0689 0.7023 0.7086
vn -0.5142 -0.6215 0.5911
vn -0.4208 -0.4292 0.7992
vn -0.6730 -0.3604 0.6459
vn 0.5336 -0.6429 0.5496
vn 0.4108 -0.4667 0.7832
vn 0.2702 -0.7052 0.6555
vn 0.8710 0.4698 -0.1438
vn 0.6773 0.6947 -0.2422
vn 0.7537 0.6553 0.0506
vn 0.8993 0.1085 0.4236
vn 0.9728 0.1965 0.1225
vn 0.8674 0.3820 0.3190
vn -0.9163 0.1317 -0.3781
vn -0.9653 -0.1492 -0.2142
vn -0.9890 0.1088 -0.0998
vn 0.6671 -0.7069 -0.2350
vn 0.8352 -0.4664 -0.2913
vn 0.8337 -0.5521 -0.0105
vn -0.6158 0.6378 -0.4626
vn -0.6128 0.7626 -0.2072
vn -0.3858 0.8497 -0.3595
vn -0.3659 -0.0827 -0.9270
vn -0.1854 -0.3582 -0.9151
vn -0.4605 -0.3252 -0.8259
vn -0.2387 -0.7083 -0.6644
vn -0.4334 -0.7998 -0.4152
vn -0.4951 -0.6052 -0.6234
vn 0.4218 -0.2400 -0.8744
vn 0.6126 -0.3448 -0.7112
vn 0.4191 -0.5370 -0.7321
vn 0.3031 -0.7619 -0.5724
vn 0.0482 -0.8567 -0.5136
vn 0.0529 -0.6709 -0.7397
vn 0.6709 0.4746 -0.5698
vn 0.8361 0.2818 -0.4707
vn 0.6423 0.2516 -0.7240
vn -0.2699 -0.8134 -0.5153
vn -0.5066 -0.7385 -0.4450
vn -0.3225 -0.6370 -0.7002
vn -0.8388 0.1096 -0.5333
vn -0.6815 0.0326 -0.7310
vn -0.7939 -0.1941 -0.5762
vn 0.0788 0.0074 -0.9969
vn -0.0518 -0.2340 -0.9709
vn -0.2105 0.0285 -0.9772
vn -0.3320 0.8169 -0.4716
vn -0.2671 0.6707 -0.6919
vn -0.5419 0.6371 -0.5482
vn 0.0823 0.0344 -0.9960
vn -0.2176 0.0003 -0.9760
vn -0.0608 0.2581 -0.9642
vn 0.2652 0.8015 -0.5360
vn 0.0246 0.7109 -0.7029
vn 0.0024 0.8854 -0.4648
vn 0.9186 0.0239 0.3944
vn 0.9646 -0.1600 0.2095
vn 0.9842 0.1303 0.1197
vn -0.8915 0.0706 -0.4475
vn -0.8162 -0.1739 -0.5510
vn -0.9486 -0.1566 -0.2751
vn -0.6817 -0.6452 0.3450
vn -0.8555 -0.4908 0.1653
vn -0.6797 -0.7285 0.0853
vn -0.6957 0.5823 0.4207
vn -0.7638 0.6231 0.1683
vn -0.8765 0.3729 0.3045
vn 0.6381 -0.7699 0.0046
vn 0.6742 -0.6899 -0.2636
vn 0.8347 -0.5489 -0.0450
vn -0.0755 -0.9843 0.1597
vn -0.3397 -0.9405 -0.0094
vn -0.0882 -0.9881 -0.1264
vn -0.6733 -0.6680 0.3170
vn -0.7997 -0.4456 0.4024
vn -0.8346 -0.5399 0.1096
vn -0.6941 0.6270 0.3537
vn -0.8728 0.4441 0.2022
vn -0.7747 0.4037 0.4866
vn 0.4545 0.8908 0.0034
vn 0.6910 0.7205 0.0575
vn 0.5876 0.7776 -0.2238
vn 0.6414 -0.4509 0.6207
vn 0.3968 -0.5025 0.7682
vn 0.4998 -0.6818 0.5342
vn 0.0027 -0.0632 0.9980
vn -0.2015 0.1357 0.9700
vn -0.2354 -0.1772 0.9556
vn -0.1962 0.8069 0.5572
vn -0.0570 0.6507 0.7571
vn 0.0774 0.8392 0.5382
vn 0.2173 0.3446 0.9133
vn -0.0712 0.2772 0.9582
vn 0.1616 0.0787 0.9837
vn 0.3246 0.8398 0.4352
vn 0.3380 0.6657 0.6653
vn 0.5573 0.6991 0.4479
vn 0.3996 0.0566 0.9149
vn 0.6484 0.1222 0.7514
vn 0.4463 0.3524 0.8226
vn 0.7121 0.4707 0.5209
vn 0.5176 0.4132 0.7492
vn 0.7169 0.1900 0.6708
vn -0.4417 -0.1660 0.8817
vn -0.4889 0.1414 0.8608
vn -0.6825 -0.0755 0.7270
vn 0.1965 -0.4743 0.8582
vn -0.0899 -0.5488 0.8311
vn 0.0920 -0.7313 0.6759
vn -0.3702 -0.7157 0.5922
vn -0.0738 -0.7814 0.6197
vn -0.2149 -0.5574 0.8020
vn -0.5313 0.8465 0.0345
vn -0.3732 0.8843 0.2805
vn -0.2535 0.9673 -0.0129
vn -0.8401 0.1610 0.5179
vn -0.9641 0.1143 0.2399
vn -0.8913 -0.1278 0.4351
vn -0.9667 -0.2422 0.0822
vn -0.9091 -0.1717 0.3795
vn -0.9815 0.0548 0.1836
vn 0.7012 -0.3932 0.5947
vn 0.5997 -0.6722 0.4341
vn 0.8046 -0.4918 0.3327
vn -0.9462 0.3236 -0.0017
vn -0.8059 0.5889 -0.0612
vn -0.8596 0.4131 -0.3009
vn -0.7106 -0.4539 -0.5376
vn -0.6807 -0.6680 -0.3006
vn -0.8600 -0.4411 -0.2567
vn 0.0684 -0.9882 0.1370
vn 0.0815 -0.9794 -0.1848
vn 0.3285 -0.9445 0.0078
vn 0.9470 -0.3211 -0.0121
vn 0.9004 -0.2920 -0.3225
vn 0.9848 -0.0477 -0.1671
vn 0.3848 0.3537 -0.8525
vn 0.1510 0.5525 -0.8197
vn 0.4099 0.6164 -0.6723
vn -0.2699 0.5113 -0.8159
vn -0.4521 0.2645 -0.8519
vn -0.5675 0.4666 -0.6784
vn 0.8582 0.2044 -0.4708
vn 0.8030 -0.0616 -0.5928
vn 0.6595 0.1554 -0.7354
vn 0.4257 -0.2387 -0.8728
vn 0.4641 -0.5209 -0.7165
vn 0.2118 -0.4646 -0.8598
vt 0.000000 0.000000
s 0
f 8/1/1 29/1/2 1/1/3
f 2/1/4 4/1/5 14/1/6
f 17/1/7 3/1/8 21/1/9
f 2/1/10 22/1/11 4/1/12
f 28/1/13 25/1/14 27/1/15
f 27/1/16 25/1/17 22/1/18
f 4/1/19 25/1/20 26/1/21
f 21/1/22 24/1/23 28/1/24
f 29/1/25 6/1/26 3/1/27
f 15/1/28 14/1/29 23/1/30
f 5/1/31 15/1/32 23/1/33
f 13/1/34 18/1/35 19/1/36
f 8/1/37 30/1/38 16/1/39
f 13/1/40 20/1/41 2/1/42
f 10/1/43 7/1/44 11/1/45
f 7/1/46 17/1/47 11/1/48
f 9/1/49 30/1/50 8/1/51
f 8/1/52 1/1/53 7/1/54
f 14/1/55 15/1/56 9/1/57
f 1/1/58 17/1/59 7/1/60
f 13/1/61 10/1/62 11/1/63
f 9/1/64 7/1/65 10/1/66
f 2/1/67 12/1/68 13/1/69
f 9/1/70 10/1/71 12/1/72
f 14/1/73 12/1/74 2/1/75
f 5/1/76 16/1/77 15/1/78
f 13/1/79 11/1/80 18/1/81
f 21/1/82 18/1/83 17/1/84
f 22/1/85 20/1/86 19/1/87
f 29/1/88 8/1/89 16/1/90
f 3/1/91 17/1/92 1/1/93
f 21/1/94 28/1/95 18/1/96
f 22/1/97 19/1/98 27/1/99
f 4/1/100 23/1/101 14/1/102
f 5/1/103 6/1/104 29/1/105
f 6/1/106 25/1/107 24/1/108
f 22/1/109 25/1/110 4/1/111
f 26/1/112 25/1/113 6/1/114
f 4/1/115 26/1/116 23/1/117
f 6/1/118 5/1/119 26/1/120
f 23/1/121 26/1/122 5/1/123
f 24/1/124 25/1/125 28/1/126
f 6/1/127 24/1/128 3/1/129
f 21/1/130 3/1/131 24/1/132
f 20/1/133 22/1/134 2/1/135
f 27/1/136 19/1/137 28/1/138
f 18/1/139 28/1/140 19/1/141
f 5/1/142 29/1/143 16/1/144
f 19/1/145 20/1/146 13/1/147
f 11/1/148 17/1/149 18/1/150
f 3/1/151 1/1/152 29/1/153
f 16/1/154 30/1/155 15/1/156
f 9/1/157 12/1/158 14/1/159
f 12/1/160 10/1/161 13/1/162
f 15/1/163 30/1/164 9/1/165
f 9/1/166 8/1/167 7/1/168
